<?xml version="1.0" encoding="UTF-8"?>
<svg version="1.1" xmlns="http://www.w3.org/2000/svg" width="1030" height="391">
<path d="M0 0 C59.73 0 119.46 0 181 0 C181.061875 20.58375 181.12375 41.1675 181.1875 62.375 C181.21481201 68.8826709 181.24212402 75.3903418 181.27026367 82.09521484 C181.28381348 90.02075195 181.28381348 90.02075195 181.28633118 93.72695923 C181.29094868 96.3245434 181.30040983 98.92169572 181.31672668 101.51919556 C181.34106635 105.44561148 181.34172188 109.37184493 181.34057617 113.29833984 C181.3513705 114.46218893 181.36216482 115.62603802 181.37328625 116.82515526 C181.36915376 117.87747652 181.36502127 118.92979778 181.36076355 120.01400757 C181.36352893 120.93395697 181.36629431 121.85390636 181.36914349 122.80173302 C181.24732614 123.52716112 181.12550879 124.25258923 181 125 C177.29260033 127.47159978 175.44379238 127.25136653 171.01574707 127.25396729 C169.94314471 127.25864726 169.94314471 127.25864726 168.84887362 127.26342177 C166.4466919 127.27141533 164.04476184 127.26507293 161.64257812 127.25878906 C159.92288566 127.26149832 158.20319435 127.26505889 156.48350525 127.26940918 C151.80798191 127.27854317 147.13254663 127.27498477 142.45702171 127.26865101 C137.56969333 127.26359624 132.68237261 127.268281 127.79504395 127.27142334 C119.58681888 127.27506451 111.37862977 127.27025992 103.17041016 127.26074219 C93.67336346 127.24985735 84.17640262 127.25338282 74.67935801 127.264395 C66.53323839 127.27346357 58.38714466 127.27475526 50.24102163 127.26951766 C45.37226039 127.26639559 40.50353955 127.26599511 35.63478088 127.27259064 C31.05804476 127.27835722 26.48141961 127.27437984 21.90469551 127.26280212 C20.22244514 127.26015185 18.54018547 127.26092687 16.85793877 127.26532745 C14.56658297 127.27076992 12.27558571 127.26396481 9.98425293 127.25396729 C8.70040459 127.25321323 7.41655624 127.25245918 6.09380341 127.25168228 C3 127 3 127 0 125 C-0.36914349 122.80173302 -0.36914349 122.80173302 -0.36076355 120.01400757 C-0.36489604 118.96168631 -0.36902853 117.90936504 -0.37328625 116.82515526 C-0.36249192 115.66130617 -0.3516976 114.49745708 -0.34057617 113.29833984 C-0.34111858 111.43944343 -0.34111858 111.43944343 -0.34167194 109.54299355 C-0.33979867 106.18439501 -0.3249379 102.82634872 -0.30384064 99.46784973 C-0.28678168 96.31882595 -0.2859527 93.16981647 -0.28381348 90.02075195 C-0.26805866 80.80545885 -0.22617533 71.59022542 -0.1875 62.375 C-0.125625 41.79125 -0.06375 21.2075 0 0 Z M54 29 C53.34 29.66 52.68 30.32 52 31 C52.29550084 34.64072189 54.06264428 36.44198781 56.5625 38.96875 C57.27664062 39.70480469 57.99078125 40.44085938 58.7265625 41.19921875 C59.47679687 41.95847656 60.22703125 42.71773437 61 43.5 C62.48591073 45.00378251 63.96538393 46.5139607 65.4375 48.03125 C66.09621094 48.69705078 66.75492188 49.36285156 67.43359375 50.04882812 C69.079854 52.09946901 69.71244512 53.39969695 70 56 C68.84765625 57.67578125 68.84765625 57.67578125 67.0625 59.3125 C66.41796875 59.91449219 65.7734375 60.51648438 65.109375 61.13671875 C62.35939533 63.56586746 59.58243051 65.96271026 56.80078125 68.35546875 C54.58848161 70.3758118 52.76025138 72.57965435 51 75 C51.66 76.32 52.32 77.64 53 79 C57.50207264 77.5738115 60.01257856 75.33807795 63.30078125 71.9921875 C64.02263863 71.26396286 64.02263863 71.26396286 64.75907898 70.52102661 C66.28411586 68.97928936 67.79834789 67.42742109 69.3125 65.875 C70.34891154 64.82353045 71.38601405 63.7727415 72.42382812 62.72265625 C74.95726395 60.1562663 77.48112008 57.5806871 80 55 C75.63527346 48.7772226 70.70835661 43.40248924 65.3125 38.0625 C64.55388672 37.29615234 63.79527344 36.52980469 63.01367188 35.74023438 C62.28341797 35.01255859 61.55316406 34.28488281 60.80078125 33.53515625 C60.14247314 32.879104 59.48416504 32.22305176 58.8059082 31.54711914 C56.97574355 29.78243691 56.97574355 29.78243691 54 29 Z M82 73 C81.34 74.32 80.68 75.64 80 77 C82.49261318 79.49261318 83.2550679 79.25242752 86.69335938 79.25878906 C87.66776978 79.26509338 88.64218018 79.27139771 89.64611816 79.27789307 C90.70133667 79.2738446 91.75655518 79.26979614 92.84375 79.265625 C93.92378296 79.26753845 95.00381592 79.2694519 96.11657715 79.27142334 C98.40307854 79.27278607 100.68958764 79.26908352 102.97607422 79.26074219 C106.48552755 79.25004412 109.99446893 79.26063473 113.50390625 79.2734375 C115.7213553 79.27211592 117.93880403 79.26955356 120.15625 79.265625 C121.73907776 79.27169769 121.73907776 79.27169769 123.35388184 79.27789307 C124.81549744 79.26843658 124.81549744 79.26843658 126.30664062 79.25878906 C127.16664673 79.25719788 128.02665283 79.25560669 128.91271973 79.25396729 C131.22015082 79.19086487 131.22015082 79.19086487 133 77 C132.505 75.02 132.505 75.02 132 73 C115.5 73 99 73 82 73 Z " fill="#18161D" transform="translate(96,149)"/>
<path d="M0 0 C2.3581543 1.04711914 2.3581543 1.04711914 4.82421875 2.53515625 C5.75669434 3.08937256 6.68916992 3.64358887 7.64990234 4.21459961 C9.15351318 5.1293103 9.15351318 5.1293103 10.6875 6.0625 C12.86018566 7.35759561 15.03338004 8.65183809 17.20703125 9.9453125 C18.32932129 10.61723633 19.45161133 11.28916016 20.60791016 11.98144531 C25.99827379 15.18912679 31.43638249 18.31257357 36.875 21.4375 C39.06001428 22.69640903 41.24490947 23.95552477 43.4296875 25.21484375 C44.51475586 25.83987793 45.59982422 26.46491211 46.71777344 27.10888672 C52.14659942 30.23680148 57.57319281 33.36858448 63 36.5 C65.16665583 37.75001879 67.3333225 39.00001878 69.5 40.25 C89 51.5 89 51.5 108.5 62.75 C109.57354736 63.36931396 110.64709473 63.98862793 111.75317383 64.62670898 C113.90940213 65.87076792 116.06549049 67.11506942 118.22143555 68.35961914 C123.21406952 71.24130659 128.20787516 74.12087122 133.20706177 76.99118042 C134.95024732 77.9921981 136.69296372 78.99402783 138.43554688 79.99609375 C140.60129618 81.24118039 142.76788871 82.4848021 144.93554688 83.7265625 C146.88371709 84.84735855 148.82101235 85.98738103 150.74419785 87.150527 C153.95710108 89.05743847 153.95710108 89.05743847 157.37363052 90.43578434 C165.95992003 94.51242464 165.95992003 94.51242464 167.7560358 98.80822253 C169.02946447 104.37620945 168.79137364 110.08110152 168.71386719 115.75756836 C168.73477395 117.67522141 168.76117309 119.59282125 168.79263306 121.5103302 C168.86032074 126.7055299 168.84573729 131.89745357 168.81209469 137.09286952 C168.79174397 141.43449994 168.81239861 145.77553618 168.83320546 150.11713415 C168.88194518 160.36177189 168.86485679 170.60482816 168.8046875 180.84936523 C168.74363424 191.40830533 168.78411124 201.96332249 168.87626529 212.52194875 C168.95241572 221.59764666 168.97007836 230.67213859 168.94004178 239.74810702 C168.92241182 245.16438875 168.92567172 250.57849972 168.98329926 255.9945507 C169.03457528 261.08953434 169.01239343 266.17910114 168.93442917 271.27369499 C168.91784308 273.13882596 168.92659783 275.0043873 168.9630394 276.86923599 C169.20838232 290.56617184 169.20838232 290.56617184 165.53798199 294.61127019 C161.96743397 297.45750859 158.06303719 299.38798568 153.87854052 301.16755497 C151.03724201 302.42663072 148.41914451 304.02883011 145.76171875 305.6328125 C143.73774693 306.79820941 141.71298949 307.96224284 139.6875 309.125 C137.42055224 310.42965157 135.15362576 311.73434013 132.88671875 313.0390625 C131.74509277 313.69551758 130.6034668 314.35197266 129.42724609 315.02832031 C123.94844203 318.18025232 118.47438887 321.34040797 113 324.5 C110.83335774 325.7500423 108.66669103 327.00004224 106.5 328.25 C105.4275 328.86875 104.355 329.4875 103.25 330.125 C67.5 350.75 67.5 350.75 64.24902344 352.62548828 C62.08552524 353.87371034 59.92211357 355.12208239 57.75878906 356.37060547 C52.29434983 359.52405256 46.82836355 362.67476096 41.359375 365.8203125 C40.26455811 366.4505835 39.16974121 367.08085449 38.04174805 367.73022461 C35.86677871 368.98216684 33.69117138 370.23300143 31.51489258 371.48266602 C26.19395649 374.54623528 20.90219009 377.64796488 15.65234375 380.83203125 C14.14365723 381.74251221 14.14365723 381.74251221 12.60449219 382.67138672 C10.71000737 383.81841578 8.82096727 384.97450403 6.93847656 386.14111328 C6.09639648 386.65013184 5.25431641 387.15915039 4.38671875 387.68359375 C3.29170044 388.35733032 3.29170044 388.35733032 2.17456055 389.04467773 C-0.47489006 390.20862746 -2.12866868 390.34449319 -5 390 C-7.3581543 388.95288086 -7.3581543 388.95288086 -9.82421875 387.46484375 C-10.75669434 386.91062744 -11.68916992 386.35641113 -12.64990234 385.78540039 C-14.15351318 384.8706897 -14.15351318 384.8706897 -15.6875 383.9375 C-17.86018566 382.64240439 -20.03338004 381.34816191 -22.20703125 380.0546875 C-23.32932129 379.38276367 -24.45161133 378.71083984 -25.60791016 378.01855469 C-30.99827379 374.81087321 -36.43638249 371.68742643 -41.875 368.5625 C-44.06001428 367.30359097 -46.24490947 366.04447523 -48.4296875 364.78515625 C-49.51475586 364.16012207 -50.59982422 363.53508789 -51.71777344 362.89111328 C-57.14659942 359.76319852 -62.57319281 356.63141552 -68 353.5 C-70.16665583 352.24998121 -72.3333225 350.99998122 -74.5 349.75 C-87.5 342.25 -100.5 334.75 -113.5 327.25 C-114.57354736 326.63068604 -115.64709473 326.01137207 -116.75317383 325.37329102 C-118.90940213 324.12923208 -121.06549049 322.88493058 -123.22143555 321.64038086 C-128.21406952 318.75869341 -133.20787516 315.87912878 -138.20706177 313.00881958 C-139.95024732 312.0078019 -141.69296372 311.00597217 -143.43554688 310.00390625 C-145.60129618 308.75881961 -147.76788871 307.5151979 -149.93554688 306.2734375 C-151.88371709 305.15264145 -153.82101235 304.01261897 -155.74419785 302.849473 C-158.95710108 300.94256153 -158.95710108 300.94256153 -162.37363052 299.56421566 C-170.95992003 295.48757536 -170.95992003 295.48757536 -172.7560358 291.19177747 C-174.02946447 285.62379055 -173.79137364 279.91889848 -173.71386719 274.24243164 C-173.73477395 272.32477859 -173.76117309 270.40717875 -173.79263306 268.4896698 C-173.86032074 263.2944701 -173.84573729 258.10254643 -173.81209469 252.90713048 C-173.79174397 248.56550006 -173.81239861 244.22446382 -173.83320546 239.88286585 C-173.88194518 229.63822811 -173.86485679 219.39517184 -173.8046875 209.15063477 C-173.74363424 198.59169467 -173.78411124 188.03667751 -173.87626529 177.47805125 C-173.95241572 168.40235334 -173.97007836 159.32786141 -173.94004178 150.25189298 C-173.92241182 144.83561125 -173.92567172 139.42150028 -173.98329926 134.0054493 C-174.03457528 128.91046566 -174.01239343 123.82089886 -173.93442917 118.72630501 C-173.91784308 116.86117404 -173.92659783 114.9956127 -173.9630394 113.13076401 C-174.20838232 99.43382816 -174.20838232 99.43382816 -170.53798199 95.38872981 C-166.96743397 92.54249141 -163.06303719 90.61201432 -158.87854052 88.83244503 C-156.03724201 87.57336928 -153.41914451 85.97116989 -150.76171875 84.3671875 C-148.73774693 83.20179059 -146.71298949 82.03775716 -144.6875 80.875 C-142.42055224 79.57034843 -140.15362576 78.26565987 -137.88671875 76.9609375 C-136.74509277 76.30448242 -135.6034668 75.64802734 -134.42724609 74.97167969 C-128.94844203 71.81974768 -123.47438887 68.65959203 -118 65.5 C-115.83335774 64.2499577 -113.66669103 62.99995776 -111.5 61.75 C-110.4275 61.13125 -109.355 60.5125 -108.25 59.875 C-72.5 39.25 -72.5 39.25 -69.24902344 37.37451172 C-67.08552524 36.12628966 -64.92211357 34.87791761 -62.75878906 33.62939453 C-57.29434983 30.47594744 -51.82836355 27.32523904 -46.359375 24.1796875 C-45.26455811 23.5494165 -44.16974121 22.91914551 -43.04174805 22.26977539 C-40.86677871 21.01783316 -38.69117138 19.76699857 -36.51489258 18.51733398 C-31.19395649 15.45376472 -25.90219009 12.35203512 -20.65234375 9.16796875 C-19.64655273 8.56098145 -18.64076172 7.95399414 -17.60449219 7.32861328 C-15.71000737 6.18158422 -13.82096727 5.02549597 -11.93847656 3.85888672 C-11.09639648 3.34986816 -10.25431641 2.84084961 -9.38671875 2.31640625 C-8.29170044 1.64266968 -8.29170044 1.64266968 -7.17456055 0.95532227 C-4.52510994 -0.20862746 -2.87133132 -0.34449319 0 0 Z M-13.5 23.375 C-14.50264893 23.97916748 -15.50529785 24.58333496 -16.53833008 25.20581055 C-18.65232952 26.48052704 -20.75876897 27.76785564 -22.85791016 29.06689453 C-27.74730996 32.07499613 -32.72043821 34.93521838 -37.6875 37.8125 C-39.69167473 38.98521838 -41.69557582 40.1584045 -43.69921875 41.33203125 C-50.43988836 45.26754446 -57.218128 49.13617028 -64 53 C-73.72134099 58.53968899 -83.40895092 64.13375063 -93.06689453 69.78344727 C-103.55571895 75.9171256 -114.08347601 81.9826952 -124.61230469 88.04736328 C-128.19331946 90.11142758 -131.77265987 92.1783705 -135.3515625 94.24609375 C-137.15185866 95.28592855 -138.95217831 96.32572267 -140.75250244 97.36550903 C-142.46915208 98.35717984 -144.1855065 99.34936163 -145.90185547 100.34155273 C-146.93455566 100.93782471 -147.96725586 101.53409668 -149.03125 102.1484375 C-149.94455078 102.67614746 -150.85785156 103.20385742 -151.79882812 103.74755859 C-153.17988691 104.53336511 -154.57878495 105.28939248 -156 106 C-156 164.74 -156 223.48 -156 284 C-143.625 290.93 -143.625 290.93 -131 298 C-117.85143541 305.6413124 -117.85143541 305.6413124 -113.08984375 308.4375 C-106.78429581 312.1321331 -100.45705564 315.78852681 -94.125 319.4375 C-93.04484619 320.06003662 -91.96469238 320.68257324 -90.85180664 321.32397461 C-88.66203666 322.58576826 -86.47217645 323.84740534 -84.28222656 325.10888672 C-78.85340058 328.23680148 -73.42680719 331.36858448 -68 334.5 C-65.83334417 335.75001879 -63.6666775 337.00001878 -61.5 338.25 C-48.5 345.75 -48.5 345.75 -45.24658203 347.63012695 C-43.09494184 348.86936686 -40.93969272 350.10236325 -38.78076172 351.32885742 C-33.69871156 354.2260183 -28.67586875 357.17102479 -23.76715088 360.35220337 C-21.45953453 361.84232712 -19.13040507 363.29676135 -16.79882812 364.74902344 C-15.16929701 365.78435564 -13.57219401 366.87018051 -11.9765625 367.95703125 C-8.93734265 369.83696106 -6.48214891 371.1843641 -3 372 C1.59161454 370.88962647 5.09567646 368.59670977 9 366 C10.8307637 364.95055765 12.66664199 363.90998147 14.5078125 362.87890625 C16.38231326 361.77701051 18.25463557 360.67140225 20.125 359.5625 C22.23402286 358.32231764 24.34341061 357.08275562 26.453125 355.84375 C27.53142578 355.20953125 28.60972656 354.5753125 29.72070312 353.921875 C35.08994733 350.77515892 40.48208191 347.66841381 45.875 344.5625 C46.95410645 343.94060791 48.03321289 343.31871582 49.14501953 342.67797852 C51.33582951 341.41550269 53.5267476 340.15321444 55.71777344 338.89111328 C61.14659942 335.76319852 66.57319281 332.63141552 72 329.5 C74.16665583 328.24998121 76.3333225 326.99998122 78.5 325.75 C79.5725 325.13125 80.645 324.5125 81.75 323.875 C85 322 88.25 320.125 91.5 318.25 C92.5734668 317.63068604 93.64693359 317.01137207 94.75292969 316.37329102 C96.90980903 315.12895002 99.06670992 313.88464636 101.22363281 312.64038086 C106.20991218 309.7638842 111.1960071 306.88706999 116.18127441 304.00881958 C117.91636728 303.00708606 119.65153257 302.00547811 121.38671875 301.00390625 C123.54050668 299.76066281 125.69416471 298.51719428 127.84765625 297.2734375 C135.55252509 292.82639907 143.27577895 288.4138406 151 284 C151 225.26 151 166.52 151 106 C142.75 101.38 134.5 96.76 126 92 C117.5625 87.0625 117.5625 87.0625 113.53125 84.671875 C107.90132145 81.33998092 102.2308083 78.07852327 96.5625 74.8125 C95.45527588 74.17449463 94.34805176 73.53648926 93.20727539 72.87915039 C90.93662932 71.57110523 88.66587642 70.26324552 86.39501953 68.95556641 C80.9283002 65.80667946 75.46425113 62.65316736 70 59.5 C67.83334689 58.2499765 65.66668021 56.99997653 63.5 55.75 C50.5 48.25 50.5 48.25 47.24560547 46.37231445 C45.09376086 45.13096525 42.94174452 43.88991371 40.78955078 42.64916992 C35.74447938 39.74019997 30.70111579 36.82839477 25.66400146 33.90567017 C23.88319999 32.8725706 22.10184142 31.84043829 20.3203125 30.80859375 C18.08742917 29.51493912 15.8555909 28.21947836 13.625 26.921875 C11.63780184 25.77152492 9.64244087 24.63511465 7.63769531 23.515625 C5 22 5 22 2.85449219 20.5 C-3.55164273 16.33456149 -7.58417299 19.59124986 -13.5 23.375 Z " fill="#18161D" transform="translate(189,1)"/>
<path d="M0 0 C5.28 0 10.56 0 16 0 C17.69981679 12.8515296 18.9345636 25.71199923 20.0625 38.625 C20.32254668 41.59440953 20.58348797 44.56372666 20.84727478 47.5328064 C21.00979045 49.36238288 21.17020331 51.19214782 21.32814026 53.02212524 C21.40169235 53.85094208 21.47524445 54.67975891 21.55102539 55.53369141 C21.61383194 56.25376373 21.67663849 56.97383606 21.74134827 57.71572876 C22.05629217 60.49714175 22.52170028 63.24247353 23 66 C23.07294785 65.24689041 23.14589569 64.49378082 23.22105408 63.71784973 C23.9098689 56.61125924 24.60112192 49.50491209 25.2950964 42.39882374 C25.65176634 38.74574755 26.00750175 35.09258543 26.36108398 31.43920898 C26.70251463 27.91175008 27.04642287 24.38454063 27.39203072 20.85748863 C27.58703494 18.86079137 27.77949043 16.86384572 27.97190857 14.86689758 C28.09195755 13.64600937 28.21200653 12.42512115 28.33569336 11.16723633 C28.4400621 10.09468094 28.54443085 9.02212555 28.65196228 7.91706848 C28.97186788 5.23578854 29.4280843 2.63771777 30 0 C32.97922593 -0.02683987 35.95821295 -0.04676037 38.9375 -0.0625 C40.21270508 -0.07506836 40.21270508 -0.07506836 41.51367188 -0.08789062 C42.32255859 -0.09111328 43.13144531 -0.09433594 43.96484375 -0.09765625 C44.7137085 -0.10289307 45.46257324 -0.10812988 46.23413086 -0.11352539 C48 0 48 0 49 1 C49.27146258 2.95929361 49.48028424 4.92729734 49.66430664 6.89672852 C49.78435562 8.15796036 49.9044046 9.4191922 50.02809143 10.71864319 C50.15554148 12.1053888 50.2828941 13.49214338 50.41015625 14.87890625 C50.54285838 16.28998934 50.67595547 17.70103533 50.80943298 19.11204529 C51.16025666 22.83202521 51.5056929 26.55248671 51.85003662 30.27307129 C52.20213131 34.06711659 52.55928148 37.86068549 52.91601562 41.65429688 C53.61564593 49.10240575 54.30958955 56.55103022 55 64 C56.78658609 62.21341391 56.43756066 59.52993592 56.66430664 57.10327148 C56.78435562 55.84203964 56.9044046 54.5808078 57.02809143 53.28135681 C57.15554148 51.8946112 57.2828941 50.50785662 57.41015625 49.12109375 C57.54285838 47.71001066 57.67595547 46.29896467 57.80943298 44.88795471 C58.16025666 41.16797479 58.5056929 37.44751329 58.85003662 33.72692871 C59.20213131 29.93288341 59.55928148 26.13931451 59.91601562 22.34570312 C60.61564609 14.89759261 61.30912237 7.44892847 62 0 C66.95 0 71.9 0 77 0 C75.49796369 20.85172438 73.34598621 41.62297266 71.1541748 62.41088867 C70.68256782 66.89022708 70.21450203 71.36993555 69.74609375 75.84960938 C68.8340967 84.56676245 67.91799881 93.28347692 67 102 C60.07 102 53.14 102 46 102 C44.38611024 92.13491712 43.18068828 82.27274774 42.14013672 72.33325195 C41.87425962 69.80546097 41.59945931 67.27873965 41.32421875 64.75195312 C40.47540862 56.80072865 39.75456406 49.00939277 40 41 C39.34 41 38.68 41 38 41 C38.01228134 41.58995255 38.02456268 42.17990509 38.03721619 42.78773499 C38.11354324 49.38409066 37.64554661 55.81621688 36.94140625 62.37109375 C36.77849342 63.93731224 36.77849342 63.93731224 36.61228943 65.53517151 C36.38356937 67.72284533 36.15234037 69.91025818 35.91870117 72.09741211 C35.56099027 75.45165672 35.21254068 78.80677312 34.86523438 82.16210938 C34.64116882 84.29432805 34.41657824 86.42649163 34.19140625 88.55859375 C34.08719864 89.56168076 33.98299103 90.56476776 33.87562561 91.59825134 C33.77559738 92.52674393 33.67556915 93.45523651 33.57250977 94.41186523 C33.48590591 95.2277562 33.39930206 96.04364716 33.31007385 96.88426208 C33 99 33 99 32 102 C24.74 102 17.48 102 10 102 C7.69961266 83.37747971 5.67258928 64.74113948 3.78295898 46.07348633 C3.38721328 42.16560077 2.98559984 38.25834102 2.58262348 34.35119534 C2.26842925 31.29645104 1.95792485 28.2413399 1.64845848 25.18611336 C1.50182892 23.74401886 1.35393386 22.30205239 1.20467567 20.86022758 C0.99758743 18.85569906 0.7961754 16.85058662 0.5949707 14.84545898 C0.47966507 13.71285141 0.36435944 12.58024384 0.24555969 11.41331482 C-0.02749573 7.61780546 0 3.80531872 0 0 Z " fill="#18161D" transform="translate(934,147)"/>
<path d="M0 0 C0.99976828 -0.00701996 0.99976828 -0.00701996 2.01973391 -0.01418173 C4.23988375 -0.02609117 6.45941166 -0.01669092 8.67956543 -0.00723267 C10.27660989 -0.01130019 11.87365153 -0.01664308 13.47068787 -0.02316284 C17.79918018 -0.03682082 22.1274576 -0.03154409 26.4559536 -0.02202559 C30.98952176 -0.01442113 35.52307173 -0.02147679 40.05664062 -0.02618408 C47.66942645 -0.03163934 55.28212491 -0.02445605 62.89489746 -0.01016235 C71.69159906 0.00616373 80.48809206 0.00087506 89.28478861 -0.01564157 C96.8424961 -0.02926298 104.40014085 -0.03117289 111.95785666 -0.02332556 C116.46954358 -0.01865265 120.98113251 -0.0180137 125.49281311 -0.02793503 C129.73477997 -0.03661195 133.97647831 -0.0305696 138.21841621 -0.01325226 C139.77362688 -0.00929128 141.32886021 -0.01041481 142.88406181 -0.01704025 C145.01016938 -0.0252616 147.13542128 -0.01492826 149.26147461 0 C150.45016899 0.00113108 151.63886337 0.00226215 152.8635788 0.00342751 C156.62986145 0.43862522 158.95201407 1.31952975 162.1307373 3.38095093 C165.1307373 8.38095093 165.1307373 8.38095093 165.1307373 26.38095093 C105.4007373 26.38095093 45.6707373 26.38095093 -15.8692627 26.38095093 C-15.8692627 8.38095093 -15.8692627 8.38095093 -12.8692627 3.38095093 C-8.52432151 0.56323039 -5.12457597 0.00487618 0 0 Z " fill="#18171D" transform="translate(111.8692626953125,115.61904907226563)"/>
<path d="M0 0 C6.93 0 13.86 0 21 0 C22.51227895 5.7615517 24.02412394 11.52321392 25.53491211 17.28515625 C26.04768631 19.24029908 26.56070169 21.19537867 27.07397461 23.15039062 C27.81689754 25.98029763 28.55891733 28.81044022 29.30078125 31.640625 C29.52590897 32.49738831 29.75103668 33.35415161 29.98298645 34.23687744 C31.70550757 40.81345369 33.35083129 47.40332514 35 54 C35.33 36.18 35.66 18.36 36 0 C40.95 0 45.9 0 51 0 C51 33.66 51 67.32 51 102 C45.06 102 39.12 102 33 102 C27.39 80.55 21.78 59.1 16 37 C15.67 58.45 15.34 79.9 15 102 C10.05 102 5.1 102 0 102 C0 68.34 0 34.68 0 0 Z " fill="#18161D" transform="translate(805,147)"/>
<path d="M0 0 C33 0 33 0 43 5 C47.82220288 11.70403816 48.2012615 17.36203184 48.25 25.3125 C48.270625 26.14201172 48.29125 26.97152344 48.3125 27.82617188 C48.35694118 34.8645431 47.19734962 39.59824576 42.3125 44.9375 C41.549375 45.618125 40.78625 46.29875 40 47 C40.47050781 47.38929688 40.94101562 47.77859375 41.42578125 48.1796875 C47.26788718 53.42911602 49.54834399 58.20581967 50.15966797 66.04833984 C50.71153055 76.57494682 50.56762684 86.16206516 44.9375 95.375 C32.36728811 106.60795531 15.84820979 102 0 102 C0 68.34 0 34.68 0 0 Z M16 15 C16 23.58 16 32.16 16 41 C24.40371521 41.67082039 24.40371521 41.67082039 29 39 C31.56528889 35.51678026 31.36662041 31.76941239 31.4375 27.5625 C31.47746094 26.26441406 31.51742187 24.96632812 31.55859375 23.62890625 C31.24036158 19.93407173 31.24036158 19.93407173 29.09765625 17.02734375 C25.22247137 14.08730186 25.22247137 14.08730186 16 15 Z M16 56 C16 66.23 16 76.46 16 87 C24.01053227 87.3294964 24.01053227 87.3294964 31 85 C33.27819703 80.83370817 33.33404066 76.70235904 33.3125 72.0625 C33.32861328 71.37220703 33.34472656 70.68191406 33.36132812 69.97070312 C33.36581009 65.24223165 32.54443514 61.9854778 30 58 C25.07673042 55.48111789 21.8643185 56 16 56 Z " fill="#18161D" transform="translate(522,147)"/>
<path d="M0 0 C5.61 0 11.22 0 17 0 C17 13.53 17 27.06 17 41 C22.28 41 27.56 41 33 41 C33 27.47 33 13.94 33 0 C38.61 0 44.22 0 50 0 C50 33.66 50 67.32 50 102 C44.39 102 38.78 102 33 102 C33 86.82 33 71.64 33 56 C27.72 56 22.44 56 17 56 C17 71.18 17 86.36 17 102 C11.39 102 5.78 102 0 102 C0 68.34 0 34.68 0 0 Z " fill="#18161D" transform="translate(737,147)"/>
<path d="M0 0 C2.9375 2.4375 2.9375 2.4375 5 5 C5.556875 5.639375 6.11375 6.27875 6.6875 6.9375 C9.69958454 11.6707757 10.25495937 16.34044924 10.29052734 21.85644531 C10.29724457 22.51425491 10.30396179 23.17206451 10.31088257 23.84980774 C10.32976951 26.00932522 10.33378232 28.16853022 10.3359375 30.328125 C10.34237314 31.84259159 10.34910206 33.35705695 10.35610962 34.871521 C10.36806004 38.04214354 10.37179288 41.21265732 10.37060547 44.38330078 C10.37040269 48.4225287 10.39767145 52.4610498 10.43214989 56.50011063 C10.45452181 59.62820562 10.45843984 62.75613347 10.45738602 65.88430023 C10.4597278 67.3720823 10.46847012 68.85987 10.48405075 70.34757233 C10.65975194 88.86077682 10.65975194 88.86077682 4.24984741 95.93023682 C-2.63603707 102.33627262 -9.88488203 102.523691 -18.87890625 102.3125 C-25.50104393 101.95591193 -29.13756128 99.82105119 -33.8125 95.25 C-39.56035118 86.71033539 -39.44605484 78.56167277 -39.3984375 68.625 C-39.40046218 67.13102069 -39.40337688 65.63704236 -39.40713501 64.14306641 C-39.41153989 61.02301557 -39.40518704 57.90322368 -39.39111328 54.78320312 C-39.37402223 50.8022093 -39.38387335 46.82182243 -39.40183067 42.84085083 C-39.41271851 39.75915021 -39.40919939 36.67759133 -39.4014473 33.59588623 C-39.39945907 32.12880378 -39.40185565 30.66170807 -39.40888596 29.19464111 C-39.44941684 18.36183525 -38.78065032 9.94889687 -31.08203125 1.69921875 C-22.49735158 -5.30703952 -9.57945513 -4.22771049 0 0 Z M-20.18540955 15.14135742 C-22.3294046 18.51893254 -22.51127394 20.38987828 -22.53344727 24.36328125 C-22.5492836 25.62809326 -22.56511993 26.89290527 -22.58143616 28.19604492 C-22.57759471 29.56820038 -22.57255568 30.94035294 -22.56640625 32.3125 C-22.57164463 33.72827564 -22.5779219 35.14404778 -22.58518982 36.55981445 C-22.59558101 39.52214013 -22.59105116 42.48398504 -22.57641602 45.44628906 C-22.55922095 49.23632491 -22.58273617 53.02484569 -22.61790562 56.81471252 C-22.63989977 59.73679586 -22.63843367 62.65851767 -22.6301403 65.58065796 C-22.62932202 66.97766788 -22.63616201 68.37470467 -22.65091133 69.77163696 C-22.66839097 71.72659723 -22.65047518 73.68177631 -22.63110352 75.63671875 C-22.63014175 76.74748779 -22.62917999 77.85825684 -22.62818909 79.00268555 C-21.79259 82.98962718 -20.16736191 84.51737733 -17 87 C-13.36174137 87.25411568 -13.36174137 87.25411568 -10 86 C-6.77017185 82.78911701 -6.61754647 80.19957859 -6.59594727 75.75024414 C-6.58326309 74.4853566 -6.57057892 73.22046906 -6.55751038 71.91725159 C-6.55956196 70.53988481 -6.56255011 69.16251916 -6.56640625 67.78515625 C-6.56184347 66.36795298 -6.5565376 64.95075192 -6.55052185 63.53355408 C-6.5415937 60.565328 -6.54401003 57.59737102 -6.55395508 54.62915039 C-6.56544139 50.83144931 -6.54523836 47.03467852 -6.51603794 43.23709965 C-6.49766183 40.31076692 -6.49797116 37.38465653 -6.50367546 34.45828056 C-6.50382852 33.0584832 -6.49779652 31.65867063 -6.48538399 30.2589283 C-6.47045323 28.29905448 -6.48379186 26.33902745 -6.49829102 24.37915039 C-6.49845718 23.26536514 -6.49862335 22.1515799 -6.49879456 21.00404358 C-7.11867336 17.28871493 -8.32610035 15.61641248 -11 13 C-15.21057143 12.24811225 -17.07007572 12.08882056 -20.18540955 15.14135742 Z " fill="#18161D" transform="translate(911,148)"/>
<path d="M0 0 C5.61 0 11.22 0 17 0 C17.01981934 2.46307617 17.03963867 4.92615234 17.06005859 7.46386719 C17.12694071 15.5983933 17.20458061 23.73279104 17.28752708 31.86716843 C17.33749053 36.79943779 17.38382063 41.73168573 17.421875 46.6640625 C17.4587271 51.42334127 17.50508697 56.18244082 17.55806351 60.94156647 C17.57660783 62.75801706 17.59171566 64.57450607 17.60334396 66.3910141 C17.62020572 68.93371464 17.6492405 71.47600472 17.68115234 74.01855469 C17.68331253 74.77093414 17.68547272 75.5233136 17.68769836 76.29849243 C17.74685104 79.9835678 17.83065523 82.930411 20 86 C22.79870027 87.39935013 24.90498792 87.25265405 28 87 C29.82427344 86.04967473 29.82427344 86.04967473 31 84 C31.30964506 81.24334014 31.43748445 78.70767649 31.43237305 75.94848633 C31.4425647 75.12874832 31.45275635 74.30901031 31.46325684 73.46443176 C31.49346314 70.75356276 31.50266432 68.04304665 31.51171875 65.33203125 C31.52855979 63.45300617 31.54670925 61.5739924 31.56611633 59.69499207 C31.61368491 54.74829643 31.64344987 49.80164662 31.66955566 44.85479736 C31.69932663 39.80740302 31.74586882 34.76016671 31.79101562 29.71289062 C31.87712689 19.80865808 31.94288751 9.90444227 32 0 C37.61 0 43.22 0 49 0 C49.04528331 10.53603243 49.08193486 21.07199963 49.10362434 31.60810757 C49.11403707 36.50106373 49.12815021 41.39394955 49.15087891 46.28686523 C49.17269708 51.01364389 49.1845875 55.7403551 49.18975449 60.46718025 C49.19343418 62.26558556 49.20061951 64.06398741 49.21146011 65.86236382 C49.2260945 68.39196467 49.22797299 70.92129099 49.22705078 73.45092773 C49.23424133 74.18533081 49.24143188 74.91973389 49.24884033 75.6763916 C49.21311546 84.80252544 47.59314242 92.40685758 41 99 C35.16848902 104.13693895 27.36532754 103.68286656 20.015625 103.3828125 C13.59098456 102.91206696 9.42528652 100.81738824 5.125 96.0625 C0.2805307 89.08076484 -0.15369912 82.11826992 -0.11352539 73.79150391 C-0.11367142 72.99083496 -0.11381744 72.19016602 -0.1139679 71.36523438 C-0.1132748 68.73564891 -0.10551076 66.1061355 -0.09765625 63.4765625 C-0.09578993 61.64667805 -0.09436704 59.81679309 -0.09336853 57.98690796 C-0.08956023 53.18323372 -0.0797444 48.37958997 -0.06866455 43.57592773 C-0.05841411 38.66911227 -0.05386314 33.76229185 -0.04882812 28.85546875 C-0.03812056 19.23696365 -0.02053747 9.61848914 0 0 Z " fill="#18161D" transform="translate(456,147)"/>
<path d="M0 0 C5.84904215 4.88859058 8.55273848 10.05903528 9.4140625 17.6484375 C9.609375 21.09895833 9.8046875 24.54947917 10 28 C4.39 28 -1.22 28 -7 28 C-7.16276042 25.23307292 -7.32552083 22.46614583 -7.48828125 19.69921875 C-8.05285421 16.72120411 -8.55478588 15.73662475 -11 14 C-15.08106206 13.47147489 -15.08106206 13.47147489 -18.65234375 15.203125 C-20.97782639 18.30376852 -20.59245934 21.3610368 -20.4453125 25.11328125 C-19.03121469 34.28010829 -11.04721483 39.81501533 -4.55175781 45.6953125 C4.05121465 53.61021811 9.33584535 61.68707586 10.17578125 73.46484375 C10.43482731 82.31331168 9.27818731 89.36863573 3.58203125 96.33984375 C-1.11330282 101.26704617 -6.06254119 102.11665249 -12.63549805 102.29248047 C-20.47195289 102.3666739 -26.59724123 102.15247274 -32.51171875 96.57421875 C-39.50664189 88.81767074 -39.12029455 79.86415312 -39 70 C-33.72 70 -28.44 70 -23 70 C-22.57682292 73.28776042 -22.15364583 76.57552083 -21.73046875 79.86328125 C-20.99801981 83.00850315 -20.62995878 84.20424122 -18 86 C-13.92205575 86.42478586 -12.46923881 86.31282587 -9 84 C-6.90750749 77.72252247 -8.04846352 72.64655552 -10.49975586 66.71313477 C-13.32856479 61.59734084 -17.67087377 57.920518 -21.9375 54 C-30.03694721 46.52538397 -37.41186043 38.8726682 -38.2734375 27.33984375 C-38.60529309 17.12451354 -37.99391862 9.4100785 -30.75 1.5625 C-21.06320229 -3.94136234 -10.18495041 -5.05886151 0 0 Z " fill="#18161D" transform="translate(713,148)"/>
<path d="M0 0 C36.47598253 0 36.47598253 0 43.0234375 5.7890625 C50.52115998 15.97383003 49.93468967 28.91014295 48.6875 41.0390625 C47.5553265 47.73101658 45.08097618 51.91902382 40.25 56.75 C32.73251278 61.95441423 26.26395849 61 17 61 C17 74.53 17 88.06 17 102 C11.39 102 5.78 102 0 102 C0 68.34 0 34.68 0 0 Z M17 15 C17 24.9 17 34.8 17 45 C20.63 45 24.26 45 28 45 C32.5875072 40.4124928 32.2039091 36.40488573 32.25 30.125 C32.270625 29.43019531 32.29125 28.73539063 32.3125 28.01953125 C32.34838273 23.2560987 31.53866387 20.0298208 29 16 C25.88196601 14.25464401 25.88196601 14.25464401 17 15 Z " fill="#19171E" transform="translate(394,147)"/>
<path d="M0 0 C5.28 0 10.56 0 16 0 C16 28.71 16 57.42 16 87 C24.91 87 33.82 87 43 87 C43 91.95 43 96.9 43 102 C28.81 102 14.62 102 0 102 C0 68.34 0 34.68 0 0 Z " fill="#18161D" transform="translate(587,147)"/>
<path d="M0 0 C5.61 0 11.22 0 17 0 C17 33.66 17 67.32 17 102 C11.39 102 5.78 102 0 102 C0 68.34 0 34.68 0 0 Z " fill="#18161D" transform="translate(643,147)"/>
</svg>
