<svg version="1.1" xmlns="http://www.w3.org/2000/svg" width="359px" height="400px" transform="rotate(0) scale(1, 1)">
<path d="M0 0 C60.06 0 120.12 0 182 0 C182.0309375 30.875625 182.0309375 30.875625 182.0625 62.375 C182.071604 68.8826709 182.08070801 75.3903418 182.09008789 82.09521484 C182.09460449 90.02075195 182.09460449 90.02075195 182.09544373 93.72695923 C182.0969828 96.32439046 182.10013677 98.9217737 182.10557556 101.51919556 C182.11368872 105.44558082 182.11390728 109.37194581 182.11352539 113.29833984 C182.1171235 114.46218893 182.12072161 115.62603802 182.12442875 116.82515526 C182.12305125 117.87747652 182.12167376 118.92979778 182.12025452 120.01400757 C182.12163721 121.39393167 182.12163721 121.39393167 182.12304783 122.80173302 C182 125 182 125 181 127 C176.49883227 128.91719409 172.6284234 129.23984183 167.76887512 129.20927429 C167.06349426 129.20760516 166.35811341 129.20593602 165.63135737 129.2042163 C163.27988027 129.19617422 160.9287721 129.17365255 158.57739258 129.15112305 C156.88681964 129.14232918 155.19624192 129.13441712 153.50566101 129.12731934 C148.92322427 129.10545302 144.34096262 129.07089871 139.75862718 129.03379035 C134.96344867 128.99683724 130.16821043 128.97065457 125.37297058 128.94306946 C117.32386621 128.89516054 109.27484658 128.83940079 101.22583008 128.77856445 C91.91454136 128.70824478 82.60323284 128.64845372 73.29183465 128.59470528 C63.38186271 128.53740718 53.47195011 128.47262764 43.56204009 128.40554833 C40.70386459 128.38669786 37.84568336 128.36922995 34.98749733 128.3520565 C30.50182628 128.32472052 26.01621844 128.29236915 21.53061104 128.25609589 C19.88223206 128.24352573 18.2338394 128.23262669 16.58543777 128.22349739 C14.34028712 128.21076912 12.09526663 128.19201961 9.85017395 128.17167664 C8.59234509 128.16262645 7.33451624 128.15357626 6.03857136 128.14425182 C3 128 3 128 0 127 C0 85.09 0 43.18 0 0 Z " fill="#ffffff" transform="translate(90,153)"/>
<path d="M0 0 C2.4375 1.20825195 2.4375 1.20825195 5 2.73828125 C5.95841797 3.30482422 6.91683594 3.87136719 7.90429688 4.45507812 C8.92587891 5.06802734 9.94746094 5.68097656 11 6.3125 C13.1765809 7.60110945 15.35367326 8.88885534 17.53125 10.17578125 C18.62179688 10.82240723 19.71234375 11.4690332 20.8359375 12.13525391 C25.36409861 14.80393404 29.92910232 17.4054328 34.5 20 C41.92288466 24.22515017 49.31398759 28.50178506 56.6875 32.8125 C68.33810553 39.62357982 80.02371974 46.37273669 91.71777344 53.10888672 C97.14659941 56.23680148 102.57319975 59.36857247 108 62.5 C115.70336463 66.94453958 123.40690027 71.38878171 131.11157227 75.83105469 C133.30417214 77.09610901 135.49608344 78.36235764 137.68725586 79.62988281 C142.71780366 82.53891053 147.75533483 85.43252496 152.8203125 88.28125 C153.71049072 88.7855957 154.60066895 89.28994141 155.51782227 89.80957031 C157.16772935 90.74350985 158.82165534 91.67039866 160.48022461 92.58886719 C165.88763185 95.66289554 165.88763185 95.66289554 167 99 C167.09988104 101.5648319 167.14344464 104.10258836 167.14044189 106.66760254 C167.14489858 107.85046081 167.14489858 107.85046081 167.1494453 109.05721521 C167.15813928 111.70807601 167.15964111 114.35889169 167.16113281 117.00976562 C167.16576037 118.90679521 167.17078495 120.80382387 167.17617798 122.70085144 C167.18930714 127.85980125 167.19574756 133.01873804 167.20018864 138.17770195 C167.2031176 141.39811759 167.207222 144.61852964 167.21169281 147.83894348 C167.22536706 157.90736993 167.23503494 167.97578822 167.2388947 178.04422331 C167.24338003 189.68145871 167.26095026 201.31857693 167.2898953 212.95577669 C167.31147557 221.94264866 167.32159697 230.92948756 167.32293582 239.91638517 C167.32398617 245.28820007 167.32994309 250.6599048 167.34775543 256.0316925 C167.36417376 261.08121339 167.36642214 266.13054053 167.35761642 271.18007851 C167.35684278 273.0364922 167.36123159 274.89291606 167.37107468 276.74930382 C167.38369589 279.27723584 167.3779716 281.80447134 167.36749268 284.33239746 C167.37957728 285.44264967 167.37957728 285.44264967 167.39190602 286.57533121 C167.3436834 291.52517014 167.3436834 291.52517014 165.64210129 293.87606049 C163.22004608 295.53384102 160.73777732 297.00049173 158.1796875 298.44140625 C157.60774658 298.765681 157.03580566 299.08995575 156.4465332 299.42405701 C154.59182024 300.47463383 152.73347563 301.51859638 150.875 302.5625 C148.33213134 303.9991821 145.79102842 305.43897247 143.25 306.87890625 C142.62415009 307.23296539 141.99830017 307.58702454 141.35348511 307.95181274 C135.44951818 311.29758478 129.60538141 314.74149066 123.80029297 318.25610352 C119.21296265 321 119.21296265 321 117 321 C116.67 321.66 116.34 322.32 116 323 C114.07221197 324.09716553 112.10445462 325.12405129 110.125 326.125 C102.62093592 330.00846968 95.37338553 334.28723428 88.125 338.625 C79.11448548 344.01138482 70.05176679 349.27429231 60.875 354.375 C54.06245237 358.16161784 47.26741489 361.96289864 40.5625 365.9375 C33.82671649 369.92966947 27.0705331 373.88554795 20.29440308 377.80886841 C18.61436567 378.78244403 16.93618053 379.75921379 15.25805664 380.73608398 C12.18450135 382.51372887 9.09433164 384.25884937 6 386 C5.07614502 386.54744873 4.15229004 387.09489746 3.20043945 387.65893555 C-3.15010485 391.21996071 -3.15010485 391.21996071 -7.21484375 390.16796875 C-8.11332031 389.51441406 -9.01179687 388.86085938 -9.9375 388.1875 C-10.94167969 387.50429688 -11.94585937 386.82109375 -12.98046875 386.1171875 C-13.97691406 385.41851562 -14.97335938 384.71984375 -16 384 C-17.90053422 382.90890559 -19.81679899 381.84461008 -21.75 380.8125 C-22.63816406 380.33167969 -23.52632812 379.85085938 -24.44140625 379.35546875 C-27.93127804 377.50663591 -31.45438215 375.7393597 -35 374 C-35 373.34 -35 372.68 -35 372 C-35.78890625 371.78730469 -36.5778125 371.57460938 -37.390625 371.35546875 C-42.20313782 369.54817227 -46.36482943 366.97363345 -50.75 364.3125 C-52.72841358 363.12764787 -54.70761294 361.94410705 -56.6875 360.76171875 C-57.72132812 360.14345215 -58.75515625 359.52518555 -59.8203125 358.88818359 C-65.10210722 355.75171244 -70.42522175 352.68775141 -75.75 349.625 C-76.83635742 348.99956299 -77.92271484 348.37412598 -79.04199219 347.72973633 C-81.25630916 346.45521668 -83.47082794 345.18104758 -85.68554688 343.90722656 C-91.12650571 340.77635072 -96.56303216 337.63779946 -102 334.5 C-104.16014274 333.25388283 -106.32029901 332.00778911 -108.48046875 330.76171875 C-112.87959075 328.22384007 -117.27794321 325.68463417 -121.67578125 323.14453125 C-135.68997043 315.04788489 -135.68997043 315.04788489 -149.72827148 306.99316406 C-151.50414753 305.97343962 -153.27473858 304.94444292 -155.03930664 303.90527344 C-158.57800031 301.83803618 -161.83815194 300.0583267 -165.70703125 298.6640625 C-169.04372033 297.45617249 -170.64297362 296.64988319 -173 294 C-173.50999616 291.1141076 -173.71496005 288.65039048 -173.75512695 285.74609375 C-173.79619174 284.39173218 -173.79619174 284.39173218 -173.83808613 283.01000977 C-173.92376385 279.67320021 -173.96582555 276.33773791 -174 273 C-174.00731628 272.34056019 -174.01463256 271.68112038 -174.02217054 271.00169754 C-174.14759583 259.43579706 -174.16560459 247.87006098 -174.16725707 236.30358124 C-174.16797432 233.47804066 -174.17012086 230.65250474 -174.17275429 227.82696533 C-174.1819472 217.95267434 -174.18609545 208.0783967 -174.18530273 198.20410156 C-174.18469846 189.01914459 -174.19533376 179.83424568 -174.2110464 170.64930344 C-174.22410949 162.72954407 -174.22948739 154.80980378 -174.22884732 146.89003372 C-174.22859266 142.17349433 -174.23142867 137.45700709 -174.24202538 132.74047852 C-174.25168948 128.32109463 -174.25179725 123.90181314 -174.24450874 119.48242569 C-174.24346192 117.86227392 -174.24583159 116.2421158 -174.2518692 114.62197495 C-174.25957595 112.41111102 -174.25495386 110.20060226 -174.24723816 107.98974609 C-174.24778293 106.7532431 -174.24832769 105.51674011 -174.24888897 104.24276733 C-174.00179285 101.02335897 -173.49240937 98.84903569 -172 96 C-169.42895508 94.02978516 -169.42895508 94.02978516 -166.20703125 92.1640625 C-165.62911331 91.82444489 -165.05119537 91.48482727 -164.45576477 91.13491821 C-162.64502223 90.07567554 -160.82361884 89.03688375 -159 88 C-157.90993652 87.36803711 -156.81987305 86.73607422 -155.69677734 86.08496094 C-152.3695808 84.16498194 -149.03023142 82.267789 -145.6875 80.375 C-143.21390363 78.9690968 -140.74154681 77.56102435 -138.26953125 76.15234375 C-137.65392334 75.80166336 -137.03831543 75.45098297 -136.40405273 75.0896759 C-130.53835699 71.74437809 -124.70300524 68.34800562 -118.875 64.9375 C-107.37875999 58.21202294 -95.84542986 51.55221038 -84.30419922 44.90429688 C-80.97385748 42.98493338 -77.64490852 41.06317647 -74.31640625 39.140625 C-56.24370048 28.70318942 -56.24370048 28.70318942 -49.71875 24.98828125 C-48.4654187 24.27454346 -48.4654187 24.27454346 -47.18676758 23.54638672 C-45.53132451 22.60490098 -43.87492262 21.66509903 -42.2175293 20.72705078 C-37.57880127 18.08942107 -32.97815909 15.39754712 -28.41035461 12.63934326 C-25.76635299 11.04335922 -23.11633097 9.45749318 -20.46646118 7.87127686 C-19.16387403 7.0871411 -17.8644726 6.29768683 -16.56845093 5.50274658 C-14.75115708 4.38837022 -12.92388281 3.29234177 -11.09375 2.19921875 C-10.03865234 1.55815186 -8.98355469 0.91708496 -7.89648438 0.2565918 C-4.56217137 -1.1899447 -3.37745725 -1.20991641 0 0 Z M-10.50390625 21.97265625 C-12.18371582 22.93969482 -12.18371582 22.93969482 -13.89746094 23.92626953 C-15.11921285 24.63822242 -16.3408906 25.3503026 -17.5625 26.0625 C-18.82680763 26.79339584 -20.09146099 27.52369393 -21.35644531 28.25341797 C-23.96438651 29.75913543 -26.570197 31.26844445 -29.17431641 32.78076172 C-32.70882021 34.83274958 -36.2497904 36.87318098 -39.79296875 38.91015625 C-51.55587617 45.67506362 -63.29229152 52.48449703 -74.99902344 59.34619141 C-79.83682218 62.17714304 -84.6960695 64.95543942 -89.60327148 67.6640625 C-94.60049769 70.44951852 -99.54624605 73.32569436 -104.5 76.1875 C-105.07269623 76.51803375 -105.64539246 76.8485675 -106.23544312 77.18911743 C-113.11239896 81.15844494 -119.97555939 85.14957534 -126.8125 89.1875 C-136.49201912 94.87698834 -146.25154447 100.42945398 -156 106 C-156 164.74 -156 223.48 -156 284 C-147.09 288.95 -147.09 288.95 -138 294 C-134.1566863 296.2148327 -130.32217956 298.43733479 -126.5 300.6875 C-124.44300951 301.89244138 -122.38570677 303.09684983 -120.328125 304.30078125 C-119.28720703 304.91002441 -118.24628906 305.51926758 -117.17382812 306.14697266 C-102.20374312 314.88719921 -87.15408439 323.49000532 -72.0958252 332.0770874 C-64.03772385 336.67375834 -56.00637902 341.31377966 -48 346 C-39.59583533 350.91168194 -31.18608149 355.8135891 -22.74951172 360.66943359 C-21.5133658 361.38201263 -20.27831183 362.09648977 -19.04443359 362.81298828 C-17.32170583 363.81284041 -15.59452059 364.80500019 -13.8671875 365.796875 C-12.87831543 366.36760742 -11.88944336 366.93833984 -10.87060547 367.52636719 C-7.92703282 369.03745789 -5.21292815 370.20021413 -2 371 C0.71461804 369.82720995 2.81280719 368.67114239 5.25 367.0625 C6.76165756 366.1202053 8.27477689 365.18025304 9.7890625 364.2421875 C10.61696289 363.72237305 11.44486328 363.20255859 12.29785156 362.66699219 C17.33856042 359.55731021 22.48835786 356.63495869 27.625 353.6875 C28.73190186 353.04925293 29.83880371 352.41100586 30.97924805 351.75341797 C38.31799699 347.52474115 45.68257875 343.34381517 53.0625 339.1875 C64.55148108 332.71208662 75.9212625 326.06151652 87.21875 319.2578125 C88.31783691 318.5963623 89.41692383 317.93491211 90.54931641 317.25341797 C92.70408723 315.95536706 94.85749692 314.65505289 97.00927734 313.35205078 C102.68812865 309.92762241 108.41232262 306.63834993 114.24951172 303.49169922 C119.07828735 300.87286209 123.84766877 298.14869934 128.625 295.4375 C130.57533637 294.33170584 132.52585474 293.22623262 134.4765625 292.12109375 C135.32299316 291.6408374 136.16942383 291.16058105 137.04150391 290.66577148 C141.01809814 288.4267632 145.01069443 286.21628087 149 284 C149 225.26 149 166.52 149 106 C142.90958805 101.75193053 142.90958805 101.75193053 139 102 C139 101.34 139 100.68 139 100 C137.99839844 99.46890625 136.99679687 98.9378125 135.96484375 98.390625 C134.62236564 97.67714013 133.27991943 96.96359525 131.9375 96.25 C131.28072266 95.90195313 130.62394531 95.55390625 129.94726562 95.1953125 C126.63589091 93.4335959 123.36240733 91.63574406 120.12890625 89.734375 C117.30470065 87.83839722 117.30470065 87.83839722 115 88 C115 87.34 115 86.68 115 86 C112.56303403 84.62404682 110.12543736 83.24923027 107.6875 81.875 C106.68106445 81.30652344 106.68106445 81.30652344 105.65429688 80.7265625 C101.67453855 78.48444513 97.67747741 76.27963694 93.66015625 74.10546875 C87.95311661 70.99963718 82.34888765 67.73327917 76.75 64.4375 C67.49723193 59.01231062 58.19654434 53.68137776 48.83886719 48.43920898 C43.51176408 45.44842666 38.27558991 42.36004052 33.10693359 39.1015625 C30.95315909 37.76833807 30.95315909 37.76833807 28 38 C28 37.34 28 36.68 28 36 C26.989375 35.525625 25.97875 35.05125 24.9375 34.5625 C19.33199184 31.76975576 14.03106428 28.46876062 8.68359375 25.21875 C7.45598937 24.47873484 6.22812434 23.73915192 5 23 C4.36723145 22.61328125 3.73446289 22.2265625 3.08251953 21.828125 C-2.7122747 18.37163445 -4.78672715 18.65919082 -10.50390625 21.97265625 Z " fill="#ffffff" transform="translate(184,6)"/>
<path d="M0 0 C0.68355196 -0.0055344 1.36710393 -0.01106879 2.07136959 -0.0167709 C4.34930156 -0.03032481 6.62612776 -0.01543825 8.90403748 -0.00050354 C10.54211389 -0.00428862 12.1801871 -0.00979023 13.81825256 -0.01687622 C18.25831051 -0.03082239 22.69798059 -0.01966751 27.13801694 -0.00316501 C31.78682834 0.01069781 36.43561752 0.0042241 41.08444214 0.0007019 C48.88976789 -0.00199897 56.69493975 0.01146578 64.50022888 0.03465271 C73.52303508 0.061271 82.54558416 0.06300614 91.56841618 0.05126435 C100.25131173 0.0404845 108.93411431 0.04667466 117.61700249 0.06081963 C121.31108232 0.06657669 125.00509405 0.06649896 128.69917488 0.06175423 C133.04867278 0.05698113 137.39788917 0.06709981 141.74733353 0.08870888 C143.34327304 0.09427206 144.93923964 0.09474633 146.53518105 0.08975601 C148.71419583 0.08379704 150.89235163 0.09631881 153.07128906 0.11352539 C154.89995939 0.11717023 154.89995939 0.11717023 156.76557255 0.12088871 C160.29234196 0.53918152 162.15173422 1.37966572 164.97215271 3.50120544 C168.29562164 8.37803486 168.37710528 12.63372534 168.22215271 18.31370544 C168.21699646 19.08907654 168.21184021 19.86444763 168.20652771 20.66331482 C168.12697469 26.34638346 168.12697469 26.34638346 166.97215271 27.50120544 C164.63418268 27.60104018 162.32570068 27.63563431 159.98716736 27.62818909 C158.8782596 27.63052907 158.8782596 27.63052907 157.74694967 27.63291633 C155.25103398 27.63692904 152.75517831 27.63373565 150.25926208 27.63059998 C148.47750818 27.6319539 146.69575456 27.63373378 144.91400146 27.63591003 C140.06083559 27.64048546 135.20769088 27.63869436 130.35452461 27.63553095 C125.28741013 27.63300791 120.22029753 27.63534473 115.15318298 27.63691711 C106.64215264 27.63873897 98.13113096 27.63633207 89.62010193 27.63157654 C79.76521596 27.62613389 69.91035068 27.62789653 60.05546522 27.63340294 C51.61048692 27.63793361 43.16551487 27.63858485 34.72053576 27.63596427 C29.66961357 27.63440124 24.61870111 27.63420845 19.56777954 27.63750076 C14.82038588 27.6403788 10.07301903 27.63840503 5.32562828 27.63260651 C3.57803581 27.63127854 1.8304411 27.63167363 0.0828495 27.63386917 C-2.29241862 27.63657927 -4.66759946 27.6332013 -7.04286194 27.62818909 C-7.74352862 27.63041981 -8.4441953 27.63265053 -9.1660943 27.63494885 C-13.91369742 27.61535531 -13.91369742 27.61535531 -15.02784729 26.50120544 C-15.15504658 24.12879073 -15.20372403 21.75199924 -15.21534729 19.37620544 C-15.22952698 18.07425232 -15.24370667 16.77229919 -15.25831604 15.43089294 C-15.01979568 11.36391871 -14.60238322 8.26385004 -13.02784729 4.50120544 C-8.64153442 0.90012383 -5.62469956 0.00096529 0 0 Z " fill="#ffffff" transform="translate(104.02784729003906,120.49879455566406)"/>
<path d="M0 0 C60.06 0 120.12 0 182 0 C182.04125 20.58375 182.0825 41.1675 182.125 62.375 C182.14320801 68.8826709 182.16141602 75.3903418 182.18017578 82.09521484 C182.18920898 90.02075195 182.18920898 90.02075195 182.19088745 93.72695923 C182.19396567 96.32444781 182.20027343 98.92174445 182.21115112 101.51919556 C182.22737749 105.44559232 182.22781458 109.37190798 182.22705078 113.29833984 C182.234247 114.46218893 182.24144321 115.62603802 182.2488575 116.82515526 C182.2461025 117.87747652 182.24334751 118.92979778 182.24050903 120.01400757 C182.24235262 120.93395697 182.24419621 121.85390636 182.24609566 122.80173302 C182 125 182 125 180 127 C180 85.75 180 44.5 180 2 C120.93 2 61.86 2 1 2 C1.33 43.25 1.66 84.5 2 127 C1.34 127 0.68 127 0 127 C0 85.09 0 43.18 0 0 Z " fill="#576d9b" transform="translate(90,153)"/>
<path d="M0 0 C5.34504207 0.14472136 7.92358869 3.42462152 11.375 7.0625 C11.94718262 7.65087646 12.51936523 8.23925293 13.10888672 8.84545898 C18.39697256 14.31902583 23.44531271 19.8990459 28 26 C24.85054367 29.27340563 21.68474201 32.52976397 18.50292969 35.77172852 C17.4237765 36.87596699 16.34916066 37.98465932 15.27929688 39.09790039 C13.73709843 40.70101281 12.17907937 42.28719083 10.6171875 43.87109375 C9.90899368 44.61799721 9.90899368 44.61799721 9.18649292 45.37998962 C5.96545711 48.60366973 3.56415256 49.80314883 -1 50 C-2 49 -2 49 -2.28125 46.6796875 C-1.92533968 43.2886531 -0.97249602 42.41681362 1.5 40.125 C2.58667969 39.1040625 2.58667969 39.1040625 3.6953125 38.0625 C6.55715617 35.50139244 9.41910204 32.94379706 12.3359375 30.4453125 C13.60166464 29.34597202 14.8145434 28.1854566 16 27 C15.68598315 23.47881832 14.08093062 21.67170566 11.69140625 19.1796875 C11.02689453 18.47972656 10.36238281 17.77976563 9.67773438 17.05859375 C8.97970703 16.33800781 8.28167969 15.61742187 7.5625 14.875 C6.86833984 14.14667969 6.17417969 13.41835937 5.45898438 12.66796875 C2.99581589 10.08796071 0.52228854 7.52228854 -2 5 C-1.46428571 1.46428571 -1.46428571 1.46428571 0 0 Z " fill="#000000" transform="translate(143,183)"/>
<path d="M0 0 C0.33 0 0.66 0 1 0 C1 41.25 1 82.5 1 125 C-3.80007323 126.92002929 -6.11273121 127.23914857 -11.13105774 127.20254517 C-11.83770087 127.20017046 -12.544344 127.19779576 -13.27240056 127.1953491 C-15.63399328 127.18495405 -17.9952077 127.16008286 -20.35668945 127.13525391 C-22.05198156 127.12482508 -23.74727936 127.11529035 -25.44258118 127.10658264 C-30.04140891 127.08042748 -34.64005654 127.04176036 -39.23877358 127.00085878 C-44.04603144 126.96022626 -48.85335856 126.93108382 -53.66069031 126.90072632 C-62.76249841 126.84150205 -71.86419693 126.77193359 -80.96590155 126.69865549 C-91.32852382 126.61572886 -101.69121543 126.54432356 -112.05392897 126.47388959 C-133.36938815 126.32875295 -154.68471863 126.16913612 -176 126 C-175.505 125.01 -175.505 125.01 -175 124 C-117.25 124 -59.5 124 0 124 C0 83.08 0 42.16 0 0 Z " fill="#000000" transform="translate(269,155)"/>
<path d="M0 0 C0.68355196 -0.0055344 1.36710393 -0.01106879 2.07136959 -0.0167709 C4.34930156 -0.03032481 6.62612776 -0.01543825 8.90403748 -0.00050354 C10.54211389 -0.00428862 12.1801871 -0.00979023 13.81825256 -0.01687622 C18.25831051 -0.03082239 22.69798059 -0.01966751 27.13801694 -0.00316501 C31.78682834 0.01069781 36.43561752 0.0042241 41.08444214 0.0007019 C48.88976789 -0.00199897 56.69493975 0.01146578 64.50022888 0.03465271 C73.52303508 0.061271 82.54558416 0.06300614 91.56841618 0.05126435 C100.25131173 0.0404845 108.93411431 0.04667466 117.61700249 0.06081963 C121.31108232 0.06657669 125.00509405 0.06649896 128.69917488 0.06175423 C133.04867278 0.05698113 137.39788917 0.06709981 141.74733353 0.08870888 C143.34327304 0.09427206 144.93923964 0.09474633 146.53518105 0.08975601 C148.71419583 0.08379704 150.89235163 0.09631881 153.07128906 0.11352539 C154.89995939 0.11717023 154.89995939 0.11717023 156.76557255 0.12088871 C160.29234196 0.53918152 162.15173422 1.37966572 164.97215271 3.50120544 C168.29562164 8.37803486 168.37710528 12.63372534 168.22215271 18.31370544 C168.21699646 19.08907654 168.21184021 19.86444763 168.20652771 20.66331482 C168.12697469 26.34638346 168.12697469 26.34638346 166.97215271 27.50120544 C164.63418268 27.60104018 162.32570068 27.63563431 159.98716736 27.62818909 C158.8782596 27.63052907 158.8782596 27.63052907 157.74694967 27.63291633 C155.25103398 27.63692904 152.75517831 27.63373565 150.25926208 27.63059998 C148.47750818 27.6319539 146.69575456 27.63373378 144.91400146 27.63591003 C140.06083559 27.64048546 135.20769088 27.63869436 130.35452461 27.63553095 C125.28741013 27.63300791 120.22029753 27.63534473 115.15318298 27.63691711 C106.64215264 27.63873897 98.13113096 27.63633207 89.62010193 27.63157654 C79.76521596 27.62613389 69.91035068 27.62789653 60.05546522 27.63340294 C51.61048692 27.63793361 43.16551487 27.63858485 34.72053576 27.63596427 C29.66961357 27.63440124 24.61870111 27.63420845 19.56777954 27.63750076 C14.82038588 27.6403788 10.07301903 27.63840503 5.32562828 27.63260651 C3.57803581 27.63127854 1.8304411 27.63167363 0.0828495 27.63386917 C-2.29241862 27.63657927 -4.66759946 27.6332013 -7.04286194 27.62818909 C-7.74352862 27.63041981 -8.4441953 27.63265053 -9.1660943 27.63494885 C-13.91369742 27.61535531 -13.91369742 27.61535531 -15.02784729 26.50120544 C-15.15504658 24.12879073 -15.20372403 21.75199924 -15.21534729 19.37620544 C-15.22952698 18.07425232 -15.24370667 16.77229919 -15.25831604 15.43089294 C-15.01979568 11.36391871 -14.60238322 8.26385004 -13.02784729 4.50120544 C-8.64153442 0.90012383 -5.62469956 0.00096529 0 0 Z M-9.02784729 2.50120544 C-9.02784729 3.16120544 -9.02784729 3.82120544 -9.02784729 4.50120544 C-9.68784729 4.50120544 -10.34784729 4.50120544 -11.02784729 4.50120544 C-13.71465011 12.69166367 -13.71465011 12.69166367 -13.02784729 26.50120544 C46.04215271 26.50120544 105.11215271 26.50120544 165.97215271 26.50120544 C165.97215271 20.23120544 165.97215271 13.96120544 165.97215271 7.50120544 C160.10682247 1.60652369 160.10682247 1.60652369 152.53248596 1.3742218 C151.86389679 1.37266181 151.19530761 1.37110182 150.50645816 1.36949456 C148.25558033 1.36549099 146.00476938 1.36867175 143.75389099 1.37181091 C142.14434265 1.37045656 140.53479463 1.36867644 138.92524719 1.36650085 C134.54506376 1.36192982 130.1649038 1.36371493 125.78471994 1.36687994 C121.2061548 1.36940611 116.62759171 1.3670652 112.04902649 1.36549377 C104.35689431 1.36367246 96.66477172 1.366077 88.97264099 1.37083435 C80.0760719 1.37627303 71.17952573 1.37451702 62.2829572 1.36900795 C54.65149302 1.36447112 47.02003575 1.36382918 39.38857067 1.36644661 C34.82773454 1.36800674 30.2669092 1.36821044 25.70607376 1.36491013 C21.41664939 1.36202329 17.12725458 1.36402211 12.8378334 1.36980438 C11.26243133 1.37112777 9.68702676 1.37074498 8.11162567 1.36854172 C5.96297899 1.36581363 3.81442735 1.36923176 1.66578674 1.3742218 C-0.13887464 1.37478734 -0.13887464 1.37478734 -1.97999382 1.3753643 C-4.52705741 1.48052861 -6.60838078 1.74848973 -9.02784729 2.50120544 Z " fill="#000000" transform="translate(104.02784729003906,120.49879455566406)"/>
<path d="M0 0 C1.32 0 2.64 0 4 0 C4.11669191 23.41721068 4.20491881 46.83437792 4.25906086 70.25182056 C4.28486579 81.1244407 4.32006002 91.99688042 4.37719727 102.86938477 C4.42696218 112.34352523 4.45927435 121.81753506 4.47044247 131.29180259 C4.47697296 136.31054741 4.49236881 141.32891845 4.52865028 146.34754372 C4.56250064 151.06797457 4.57307524 155.78787644 4.56553841 160.50841713 C4.56691788 162.24391043 4.57691565 163.9794208 4.59602737 165.71480942 C4.62079558 168.07910992 4.61496664 170.44139622 4.60127258 172.80574036 C4.62311889 173.84318861 4.62311889 173.84318861 4.64540654 174.90159541 C4.61523914 176.8197298 4.61523914 176.8197298 4 180 C1.60695171 181.96917248 1.60695171 181.96917248 -1 183 C-3.3125 182.6875 -3.3125 182.6875 -5 182 C-0.25 179 -0.25 179 2 179 C1.83544815 177.85604263 1.6708963 176.71208527 1.50135803 175.53346252 C0.69441504 168.19968786 0.91621775 160.83054091 0.97827148 153.46459961 C0.98842889 151.79827133 0.99812095 150.13194017 1.00738525 148.46560669 C1.03371995 143.96417696 1.06652839 139.46281537 1.10053515 134.96143794 C1.13502398 130.24893852 1.16350911 125.53640282 1.19264221 120.8238678 C1.24865509 111.90993698 1.31003536 102.99605159 1.37336355 94.08217007 C1.44522755 83.92982317 1.51107823 73.77744003 1.57643402 63.62504947 C1.71095097 42.74998588 1.85298629 21.87497908 2 1 C1.34 0.67 0.68 0.34 0 0 Z " fill="#ffffff" transform="translate(331,111)"/>
<path d="M0 0 C7.24486551 -0.02526739 14.48971974 -0.0428318 21.73461914 -0.05493164 C24.20142033 -0.05997356 26.66821852 -0.06680691 29.13500977 -0.07543945 C32.67204529 -0.08751125 36.20904145 -0.09322956 39.74609375 -0.09765625 C40.85649521 -0.10281754 41.96689667 -0.10797882 43.11094666 -0.11329651 C44.64242088 -0.11340981 44.64242088 -0.11340981 46.20483398 -0.11352539 C47.10862289 -0.115746 48.0124118 -0.11796661 48.94358826 -0.12025452 C51 0 51 0 52 1 C52.125 3.5 52.125 3.5 52 6 C51 7 51 7 48.94358826 7.12025452 C48.03979935 7.11803391 47.13601044 7.11581329 46.20483398 7.11352539 C45.18385117 7.11344986 44.16286835 7.11337433 43.11094666 7.11329651 C42.0005452 7.10813522 40.89014374 7.10297394 39.74609375 7.09765625 C38.61551041 7.0962413 37.48492706 7.09482635 36.32008362 7.09336853 C32.69252935 7.08775019 29.06503576 7.07519458 25.4375 7.0625 C22.98502693 7.05748736 20.5325529 7.05292405 18.08007812 7.04882812 C12.05336455 7.0377748 6.02668661 7.02101884 0 7 C-1.125 2.25 -1.125 2.25 0 0 Z " fill="#000000" transform="translate(171,226)"/>
<path d="M0 0 C0.66 0 1.32 0 2 0 C2 0.66 2 1.32 2 2 C1.34 2 0.68 2 0 2 C-0.66 9.26 -1.32 16.52 -2 24 C-2.66 24 -3.32 24 -4 24 C-4.05454409 21.64551325 -4.0939279 19.29232125 -4.125 16.9375 C-4.14820312 15.62652344 -4.17140625 14.31554687 -4.1953125 12.96484375 C-3.9532033 8.05002694 -3.58091264 3.58091264 0 0 Z " fill="#000000" transform="translate(93,123)"/>
<path d="M0 0 C0 0.66 0 1.32 0 2 C-1.03125 2.5775 -2.0625 3.155 -3.125 3.75 C-5.62910923 5.16140702 -7.84502371 6.61305641 -10.1875 8.3125 C-13 10 -13 10 -15.17578125 9.60546875 C-16.07876953 9.30576172 -16.07876953 9.30576172 -17 9 C-14.54481265 7.49462965 -12.0861548 5.99555574 -9.625 4.5 C-8.92632812 4.07074219 -8.22765625 3.64148438 -7.5078125 3.19921875 C-2.2265625 0 -2.2265625 0 0 0 Z " fill="#ffffff" transform="translate(301,308)"/>
<path d="M0 0 C0.33 0 0.66 0 1 0 C1.13489391 2.26921536 1.23193995 4.5407067 1.3125 6.8125 C1.39951172 8.70935547 1.39951172 8.70935547 1.48828125 10.64453125 C1 14 1 14 -1.375 15.96875 C-4.19293297 17.07579509 -5.24437128 17.12266355 -8 16 C-3.375 13 -3.375 13 0 13 C0 8.71 0 4.42 0 0 Z " fill="#ffffff" transform="translate(334,277)"/>
<path d="M0 0 C0 0.66 0 1.32 0 2 C-7.28571429 6.42857143 -7.28571429 6.42857143 -12 7 C-8.8380314 3.47318887 -4.98182478 0 0 0 Z " fill="#ffffff" transform="translate(196,369)"/>
<path d="M0 0 C0 0.66 0 1.32 0 2 C-3.2491277 4.3208055 -6.05879291 5.43697042 -10 6 C-7.35570758 3.077361 -4.105808 0 0 0 Z " fill="#ffffff" transform="translate(284,318)"/>
<path d="M0 0 C0.66 0.33 1.32 0.66 2 1 C0.7934375 1.4021875 0.7934375 1.4021875 -0.4375 1.8125 C-1.283125 2.204375 -2.12875 2.59625 -3 3 C-3.33 3.99 -3.66 4.98 -4 6 C-5.32 5.67 -6.64 5.34 -8 5 C-6.71475739 4.13619741 -5.42157581 3.28419631 -4.125 2.4375 C-3.04605469 1.72400391 -3.04605469 1.72400391 -1.9453125 0.99609375 C-1.30335938 0.66738281 -0.66140625 0.33867187 0 0 Z " fill="#ffffff" transform="translate(258,332)"/>
</svg>